<svg xmlns="http://www.w3.org/2000/svg" width="130" height="71" fill="none"><g clip-path="url(#a)"><path fill="#A1C854" d="M18.407 60.44h-.641v10.558h.641V60.44Z"/><path fill="#C1D98D" d="M17.766 61.446C7.626 60.826 0 51.668 0 39.939 0 25.375 9 15.088 17.766 6.143v55.303Z"/><path fill="#A1C854" d="M23.91 36.87h6.143v6.145h-6.145l.003-6.145Zm-6.144-24.581v49.158h6.145V55.3h6.142v-6.144h6.145v-6.145h6.145v-6.145h-6.145v-6.142h-6.145v-6.146h-6.145v-6.145h6.145v6.145h6.145v-6.145h-6.145v-6.145H17.766Zm12.289 0h6.144V6.144h-6.146l.002 6.145Zm-12.29-6.144h6.146V0h-6.145v6.145Zm18.434 0h6.145V0H36.2v6.145Z"/><path fill="#000" d="M63.306 26.014c0 .976-.185 1.837-.554 2.584a5.22 5.22 0 0 1-1.49 1.846 6.99 6.99 0 0 1-2.373 1.24c-.844.236-1.933.355-3.27.355H49.99V12.41h5.208c1.397 0 2.443.048 3.137.145a5.766 5.766 0 0 1 2.017.646c.704.378 1.218.874 1.543 1.49.325.606.488 1.322.488 2.148 0 .923-.246 1.75-.739 2.479-.483.73-1.155 1.3-2.017 1.714v.105c1.17.317 2.075.897 2.716 1.74.642.835.963 1.881.963 3.138Zm-3.639-8.806c0-.475-.08-.884-.237-1.227a1.79 1.79 0 0 0-.765-.83 3.584 3.584 0 0 0-1.41-.435c-.52-.053-1.236-.08-2.15-.08h-2.504v5.749h2.966c.817 0 1.42-.04 1.806-.119a3.827 3.827 0 0 0 1.2-.527c.395-.255.676-.59.843-1.002.168-.413.251-.923.251-1.53Zm.923 8.912c0-.739-.106-1.345-.317-1.82-.21-.483-.637-.892-1.278-1.226a3.895 3.895 0 0 0-1.358-.422c-.484-.061-1.174-.092-2.07-.092H52.6v7.251h2.122c1.143 0 2.044-.053 2.703-.158.659-.106 1.239-.33 1.74-.672.492-.343.853-.73 1.081-1.16.229-.44.343-1.007.343-1.701ZM68.25 32.04H65.77V17.312h2.478v14.726Zm.17-17.192H65.6v-2.571h2.82v2.57ZM76.344 32.33c-1.353 0-2.408-.383-3.164-1.148-.756-.773-1.134-1.99-1.134-3.652v-8.16h-1.674v-2.057h1.674v-4.232h2.479v4.232h4.561v2.057h-4.561v7c0 .747.013 1.323.04 1.727.026.404.127.782.303 1.134.15.308.39.54.725.699.334.15.786.224 1.358.224a4.03 4.03 0 0 0 1.173-.172c.378-.123.65-.224.817-.303h.145v2.228c-.465.132-.94.233-1.423.303-.475.08-.914.12-1.319.12ZM84.914 32.395a9.41 9.41 0 0 1-2.769-.396c-.852-.263-1.56-.544-2.123-.843v-2.782h.132c.211.167.457.352.739.554.29.202.672.413 1.147.633.421.193.883.364 1.384.514.51.15 1.037.224 1.582.224.395 0 .817-.044 1.266-.132.448-.097.782-.215 1.001-.356.308-.202.528-.417.66-.646.14-.229.21-.571.21-1.028 0-.59-.162-1.033-.487-1.332-.317-.299-.884-.55-1.7-.751-.317-.08-.73-.172-1.24-.277-.51-.106-.98-.22-1.41-.343-1.126-.325-1.943-.826-2.453-1.503-.51-.685-.765-1.512-.765-2.478 0-1.328.501-2.409 1.503-3.244 1.002-.834 2.334-1.252 3.995-1.252.817 0 1.64.101 2.465.303.826.202 1.52.457 2.083.765v2.65h-.132a7.714 7.714 0 0 0-2.122-1.187 6.636 6.636 0 0 0-2.347-.435c-.817 0-1.507.172-2.07.514-.562.343-.843.862-.843 1.556 0 .615.167 1.077.5 1.384.335.3.87.545 1.609.739.37.096.778.193 1.226.29.457.087.936.193 1.437.316 1.09.273 1.907.725 2.452 1.358.554.633.83 1.494.83 2.584 0 .633-.127 1.235-.382 1.806a3.917 3.917 0 0 1-1.094 1.45 5.612 5.612 0 0 1-1.793 1.002c-.659.229-1.49.343-2.491.343ZM118.677 32.04h-3.375l-2.69-2.809c-.896 1.142-1.819 1.964-2.768 2.465-.941.501-2.009.752-3.204.752-1.775 0-3.243-.532-4.403-1.596-1.152-1.072-1.727-2.474-1.727-4.205 0-.756.105-1.428.316-2.017.211-.589.492-1.12.844-1.595a6.145 6.145 0 0 1 1.186-1.2c.449-.352.879-.655 1.292-.91-.887-.597-1.551-1.226-1.99-1.885-.44-.66-.659-1.49-.659-2.492 0-.624.123-1.2.369-1.727a5.039 5.039 0 0 1 .988-1.41c.422-.413.967-.752 1.635-1.015a6.05 6.05 0 0 1 2.215-.396c1.459 0 2.65.387 3.573 1.16.923.765 1.384 1.736 1.384 2.914 0 .43-.057.879-.171 1.345-.106.456-.304.9-.594 1.331-.29.43-.672.835-1.147 1.213-.465.378-1.089.707-1.872.989l4.641 4.772c.123-.72.198-1.503.224-2.347.027-.852.04-1.96.04-3.322h2.57v1.266c0 .844-.109 1.797-.329 2.86a11.33 11.33 0 0 1-1.055 3.006l4.707 4.852Zm-7.212-3.97-6.064-6.209c-.22.141-.44.308-.659.501-.22.194-.462.484-.725.87-.211.308-.4.712-.567 1.213a5.103 5.103 0 0 0-.238 1.57c0 1.247.37 2.276 1.108 3.084.747.8 1.753 1.2 3.019 1.2.844 0 1.604-.176 2.281-.527.676-.36 1.292-.928 1.845-1.701Zm-4.825-8.054c.492-.167.897-.391 1.213-.673.325-.281.576-.589.751-.923.159-.307.277-.632.356-.975.08-.343.119-.712.119-1.108 0-.852-.25-1.511-.751-1.977a2.434 2.434 0 0 0-1.727-.699c-.783 0-1.398.264-1.846.791-.448.527-.672 1.187-.672 1.978 0 .351.03.654.092.91.07.245.211.535.422.87.184.272.439.562.764.87.334.307.761.62 1.279.936ZM63.306 52.014c0 .976-.185 1.837-.554 2.584a5.22 5.22 0 0 1-1.49 1.846 6.99 6.99 0 0 1-2.373 1.24c-.844.236-1.933.355-3.27.355H49.99V38.41h5.208c1.397 0 2.443.048 3.137.145a5.766 5.766 0 0 1 2.017.646c.704.378 1.218.874 1.543 1.49.325.606.488 1.322.488 2.148 0 .923-.246 1.75-.739 2.479-.483.73-1.155 1.3-2.017 1.714v.105c1.17.317 2.075.897 2.716 1.74.642.835.963 1.881.963 3.138Zm-3.639-8.806c0-.475-.08-.884-.237-1.227a1.79 1.79 0 0 0-.765-.83 3.584 3.584 0 0 0-1.41-.435c-.52-.053-1.236-.08-2.15-.08h-2.504v5.749h2.966c.817 0 1.42-.04 1.806-.119a3.827 3.827 0 0 0 1.2-.527c.395-.255.676-.59.843-1.002.168-.413.251-.923.251-1.53Zm.923 8.912c0-.739-.106-1.345-.317-1.82-.21-.483-.637-.892-1.278-1.226a3.895 3.895 0 0 0-1.358-.422c-.484-.061-1.174-.092-2.07-.092H52.6v7.251h2.122c1.143 0 2.044-.053 2.703-.158.659-.106 1.239-.33 1.74-.672.492-.343.853-.73 1.081-1.16.229-.44.343-1.007.343-1.701ZM73.945 54.414v-4.087c-.589.052-1.336.127-2.241.224-.897.088-1.622.215-2.176.382-.659.202-1.204.514-1.634.936-.431.413-.646.993-.646 1.74 0 .844.237 1.481.712 1.912.474.43 1.168.646 2.083.646.782 0 1.49-.167 2.122-.501a9.442 9.442 0 0 0 1.78-1.252Zm0 2.056c-.202.15-.475.36-.818.633-.334.264-.659.475-.975.633a7.3 7.3 0 0 1-1.279.527c-.404.123-.976.185-1.714.185a4.44 4.44 0 0 1-3.164-1.305 4.511 4.511 0 0 1-.95-1.49 5.061 5.061 0 0 1-.355-1.885c0-1.02.215-1.886.646-2.598.43-.72 1.112-1.292 2.043-1.714.827-.377 1.802-.637 2.927-.777 1.125-.15 2.338-.26 3.639-.33v-.474c0-.58-.088-1.046-.264-1.398a1.945 1.945 0 0 0-.738-.83c-.317-.203-.703-.334-1.16-.396a9.266 9.266 0 0 0-1.41-.105c-.572 0-1.245.087-2.018.263-.773.167-1.547.413-2.32.739h-.145v-2.519c.457-.131 1.111-.276 1.964-.435a13.85 13.85 0 0 1 2.531-.237c1.011 0 1.864.08 2.558.237a4.921 4.921 0 0 1 1.872.857c.536.405.936.927 1.2 1.57.263.64.395 1.423.395 2.346v10.072h-2.465V56.47Zm.989-15.622h-2.65v-2.571h2.65v2.57Zm-5.445 0h-2.65v-2.571h2.65v2.57ZM91.374 58.04h-2.479v-1.636c-.765.668-1.49 1.178-2.175 1.53-.686.342-1.45.514-2.294.514a5.21 5.21 0 0 1-1.82-.317 3.808 3.808 0 0 1-1.476-1.002c-.422-.457-.752-1.032-.989-1.727-.228-.694-.343-1.538-.343-2.53v-9.559h2.479v8.385c0 .782.026 1.432.079 1.95.062.51.193.959.395 1.346.203.378.475.654.818.83.351.176.852.264 1.503.264.606 0 1.252-.172 1.938-.514a8.846 8.846 0 0 0 1.885-1.266V43.313h2.479v14.726ZM111.676 58.04v-8.517c0-.677-.026-1.301-.079-1.873-.053-.58-.162-1.032-.329-1.358a1.7 1.7 0 0 0-.752-.777c-.325-.167-.765-.25-1.318-.25-.51 0-1.059.157-1.648.474-.58.307-1.182.756-1.806 1.345.008.149.017.33.026.54.018.202.026.444.026.725v9.69h-2.478v-8.517c0-.676-.026-1.3-.079-1.872-.053-.58-.163-1.032-.33-1.358a1.699 1.699 0 0 0-.751-.777c-.325-.167-.765-.25-1.319-.25-.536 0-1.098.166-1.687.5-.589.334-1.16.76-1.714 1.279v10.995H94.96V43.313h2.478v1.635c.65-.65 1.292-1.152 1.925-1.503a4.235 4.235 0 0 1 2.109-.54c.87 0 1.639.197 2.307.593.677.395 1.191 1.046 1.543 1.95.747-.834 1.476-1.467 2.188-1.898a4.404 4.404 0 0 1 2.321-.646c.632 0 1.208.101 1.727.303.518.194.971.51 1.358.95.395.448.698 1.006.909 1.674.22.668.33 1.507.33 2.518v9.69h-2.479ZM124.029 58.382c-2.346 0-4.17-.66-5.471-1.978-1.292-1.327-1.938-3.208-1.938-5.642 0-2.4.629-4.307 1.885-5.722 1.257-1.424 2.901-2.136 4.931-2.136.914 0 1.723.132 2.426.396a4.832 4.832 0 0 1 1.846 1.24c.527.562.931 1.252 1.212 2.069.282.808.422 1.802.422 2.98v1.344h-10.204c0 1.714.431 3.023 1.292 3.929.862.905 2.052 1.358 3.573 1.358.545 0 1.077-.062 1.595-.185a7.526 7.526 0 0 0 1.424-.474c.448-.203.826-.396 1.134-.58.307-.194.562-.374.764-.541h.145v2.703c-.29.114-.65.259-1.081.435-.43.167-.817.298-1.16.395-.483.132-.923.233-1.318.303-.387.07-.879.106-1.477.106Zm2.901-9.347c-.018-.668-.097-1.244-.238-1.727a3.542 3.542 0 0 0-.606-1.227 2.77 2.77 0 0 0-1.121-.843c-.448-.194-1.006-.29-1.674-.29-.659 0-1.222.1-1.687.303a3.924 3.924 0 0 0-1.253.857c-.369.387-.65.817-.844 1.292-.193.466-.316 1.01-.369 1.635h7.792Z"/></g><defs><clipPath id="a"><path fill="#fff" d="M0 0h130v70.89H0z"/></clipPath></defs></svg>
